<svg width="25" height="23" viewBox="0 0 25 23" fill="none" xmlns="http://www.w3.org/2000/svg">
<path d="M12.1835 19.6656C11.3664 18.7248 10.0025 17.7186 8.68157 17.082C7.34778 16.4391 6.08088 16.0821 4.6425 15.944C4.3589 15.917 4.12378 15.8918 4.12002 15.8883C4.11635 15.8883 4.12369 12.9846 4.13835 9.44386L4.16255 3.00629L4.42443 3.03146C6.03241 3.18787 7.82712 3.78366 9.18504 4.61407C10.3553 5.32959 11.5638 6.43452 12.3342 7.49324L12.5281 7.75968V13.8747C12.5281 17.2379 12.5135 19.989 12.4959 19.9885C12.4775 19.988 12.3372 19.8425 12.1835 19.6656ZM13.5156 13.8593V7.71869L13.89 7.22807C14.3681 6.60171 15.3297 5.65805 15.9656 5.19152C17.6653 3.94402 19.5092 3.23911 21.626 3.02697L21.8945 3V9.44655V15.8933L21.583 15.922C18.6355 16.191 16.0802 17.3835 14.0815 19.4225L13.5156 20V13.8593ZM15.3418 19.5826C16.4986 18.5183 18.0301 17.6726 19.5685 17.2481C20.3735 17.0261 21.4203 16.8711 22.1153 16.8711C22.4796 16.8711 22.6818 16.7938 22.7958 16.6102C22.8816 16.4718 22.8825 16.4123 22.8827 11.1886L22.8828 5.90632L23.044 5.93509C23.1325 5.95307 23.3839 6.02138 23.6025 6.0897L24 6.21375V12.8061C24 16.4319 23.9853 19.3985 23.9672 19.3985C23.9489 19.3985 23.6832 19.3427 23.3764 19.2744C22.1637 19.0065 21.1651 18.9145 19.8536 18.9492C18.2627 18.9923 17.0264 19.2099 15.5567 19.7079L14.9981 19.8972L15.3418 19.5826ZM10.4433 19.685C9.83294 19.4707 8.82494 19.2181 8.14446 19.1092C7.21921 18.9618 6.58087 18.9226 5.44688 18.9474C4.32015 18.9708 3.63862 19.0481 2.7089 19.255C2.44893 19.3125 2.18306 19.3718 2.11807 19.3844L2 19.4096L2.0002 12.7996L2.00042 6.18948L2.50512 6.04565C2.78269 5.96655 3.03399 5.89284 3.06352 5.88385C3.10624 5.86587 3.11724 6.94276 3.11724 11.1602C3.11724 16.9234 3.1044 16.6022 3.35517 16.7638C3.44243 16.8195 3.62375 16.8447 4.14154 16.8752C6.19939 16.9903 8.15201 17.6679 9.7461 18.8208C10.0898 19.0695 10.9148 19.7523 10.9621 19.8272C10.9951 19.8794 10.9731 19.874 10.4434 19.687L10.4433 19.685Z" fill="#FF7415"/>
</svg>
