<svg width="24" height="24" viewBox="0 0 24 24" fill="none" xmlns="http://www.w3.org/2000/svg">
<path d="M7.44725 24C5.84772 20.6717 6.69953 18.7646 7.92888 16.9678C9.27515 15 9.6221 13.0522 9.6221 13.0522C9.6221 13.0522 10.6804 14.428 10.257 16.5797C12.1267 14.4985 12.4796 11.1825 12.1972 9.91256C16.4234 12.8659 18.2295 19.2607 15.7954 24C28.7417 16.6751 19.0157 5.71473 17.3225 4.48011C17.8869 5.71469 17.9939 7.80471 16.8537 8.81902C14.9236 1.49999 10.1513 0 10.1513 0C10.7157 3.77447 8.10528 7.90183 5.58807 10.9859C5.49964 9.48079 5.40568 8.44223 4.61422 7.00196C4.43656 9.73607 2.34708 11.9648 1.78125 14.7042C1.01481 18.414 2.35536 21.1303 7.44725 24Z" fill="#fff"/>
</svg>
