<svg width="25" height="25" viewBox="0 0 25 25" fill="none" xmlns="http://www.w3.org/2000/svg">
<g clip-path="url(#clip0_12_214)">
<path d="M24.4713 11.3008C23.245 5.68096 21.516 4.29543 20.4633 3.7398C18.7771 2.84993 16.8224 3.36774 16.1739 3.70336C15.4376 4.08261 14.9406 4.80462 14.1921 5.11814C13.3272 5.4788 12.1509 5.57663 11.2661 5.14101C10.5612 4.79322 9.93912 4.05046 9.08496 3.72195C8.00225 3.30414 6.19895 2.71852 4.4135 3.99833C3.99141 4.30115 0.981173 6.82503 0.0770123 14.7095C-0.480745 19.5711 2.18456 21.1351 2.08672 21.0644C2.77234 21.5558 4.30783 22.3863 6.38824 21.0851C7.77876 20.216 8.90714 18.4991 8.90714 18.4991C8.90714 18.4991 9.40992 17.5442 10.0777 17.1385C10.5505 16.8507 11.2575 17.0693 11.2575 17.0693H13.7593C13.7593 17.0693 14.5535 16.9693 15.1113 17.2157C15.6526 17.4521 15.9582 18.0355 15.9582 18.0355C15.9582 18.0355 17.6073 20.1667 19.1878 21.2529C19.8605 21.7143 22.5644 22.2457 23.9606 20.5402C24.8726 19.4239 25.4947 15.9923 24.4713 11.3008ZM11.1061 10.8031C11.1061 11.2301 10.7669 11.5758 10.3483 11.5758H8.45294V13.5105C8.45294 13.9383 8.11368 14.2847 7.69518 14.2847H7.12668C6.70818 14.2847 6.36896 13.939 6.36896 13.5105V11.5758H4.47278C4.05427 11.5758 3.71502 11.2308 3.71502 10.8031V10.2232C3.71502 9.79535 4.05427 9.44899 4.47278 9.44899H6.36819V7.51641C6.36819 7.08933 6.70744 6.74223 7.12594 6.74223H7.69445C8.11295 6.74223 8.4522 7.08859 8.4522 7.51641V9.44969H10.3476C10.7661 9.44969 11.1054 9.79535 11.1054 10.2239V10.8031H11.1061ZM16.4446 13.5098C15.6597 13.5098 15.0234 12.8613 15.0234 12.0593C15.0234 11.2587 15.6597 10.6095 16.4446 10.6095C17.2295 10.6095 17.8658 11.258 17.8658 12.0593C17.8665 12.8613 17.2294 13.5098 16.4446 13.5098ZM19.0506 10.2881C18.2743 10.2881 17.6451 9.64609 17.6451 8.85333C17.6451 8.06273 18.2743 7.4207 19.0506 7.4207C19.8269 7.4207 20.4561 8.06277 20.4561 8.85333C20.4561 9.64609 19.8269 10.2881 19.0506 10.2881Z" fill="#FF7415"/>
</g>
<defs>
<clipPath id="clip0_12_214">
<rect width="25" height="25" fill="white"/>
</clipPath>
</defs>
</svg>
