<svg width="25" height="25" viewBox="0 0 25 25" fill="none" xmlns="http://www.w3.org/2000/svg">
<g clip-path="url(#clip0_56_2)">
<path d="M10.9667 21.6667C8.26403 23.6458 4.52183 23.3333 2.02703 20.9375C-0.675676 18.2292 -0.675676 13.8542 2.02703 11.1458L11.0707 2.08333C12.526 0.625 14.2931 0 16.0603 0C17.8274 0 19.5946 0.625 20.9459 1.97917C23.3368 4.375 23.6486 8.22917 21.6736 10.9375C20.738 10.625 19.8025 10.4167 18.763 10.4167C18.4511 10.4167 18.1393 10.4167 17.8274 10.5208L18.659 9.6875C20.1143 8.22917 20.1143 5.83333 18.659 4.375C17.9314 3.54167 16.9958 3.125 16.0603 3.125C15.0208 3.125 14.0852 3.54167 13.3576 4.27083L9.40748 8.125L13.4615 12.1875C11.5904 13.75 10.343 16.0417 10.343 18.6458C10.447 19.7917 10.6549 20.7292 10.9667 21.6667ZM22.4012 13.6458C21.3617 12.9167 20.1143 12.5 18.763 12.5C15.3326 12.5 12.526 15.3125 12.526 18.75C12.526 20.1042 12.9418 21.3542 13.6694 22.3958L22.4012 13.6458ZM23.8565 15.1042L15.1247 23.8542C16.1642 24.5833 17.4116 25 18.763 25C22.1933 25 25 22.1875 25 18.75C25 17.3958 24.5842 16.1458 23.8565 15.1042Z" fill="#FF7415"/>
</g>
<defs>
<clipPath id="clip0_56_2">
<rect width="25" height="25" fill="white"/>
</clipPath>
</defs>
</svg>
