<svg width="160" height="84" viewBox="0 0 160 84" fill="none" xmlns="http://www.w3.org/2000/svg">
<path d="M76.1562 30.7266H79.0156L83.6562 41.3906V45.7266H82.9062L79.0156 36.1172V48H76.1562V30.7266ZM89.2578 30.7266H92.1172V48H89.2578V36.1172L85.3906 45.7266H84.6172V41.4375L89.2578 30.7266ZM109.039 34.7812C108.18 37.0781 107.414 39.1172 106.742 40.8984C106.07 42.6641 105.484 44.2188 104.984 45.5625C104.484 46.8906 104.039 48.0156 103.648 48.9375C103.273 49.8594 102.922 50.625 102.594 51.2344C102.281 51.8594 101.984 52.3438 101.703 52.6875C101.422 53.0469 101.133 53.3203 100.836 53.5078C100.539 53.6953 100.211 53.8047 99.8516 53.8359C99.5078 53.8828 99.1094 53.9062 98.6562 53.9062C98.5156 53.9062 98.3516 53.8828 98.1641 53.8359C97.9766 53.8047 97.7891 53.7578 97.6016 53.6953C97.4297 53.6484 97.2734 53.5938 97.1328 53.5312C96.9922 53.4844 96.8984 53.4531 96.8516 53.4375C96.9141 53.1562 96.9766 52.8906 97.0391 52.6406C97.0859 52.4219 97.1328 52.2109 97.1797 52.0078C97.2422 51.8203 97.2891 51.6875 97.3203 51.6094C97.4453 51.6094 97.6328 51.6484 97.8828 51.7266C98.1484 51.8047 98.3438 51.8438 98.4688 51.8438C98.7188 51.8438 98.9375 51.8281 99.125 51.7969C99.3281 51.7812 99.5078 51.7109 99.6641 51.5859C99.8203 51.4766 99.9688 51.3047 100.109 51.0703C100.25 50.8516 100.406 50.5312 100.578 50.1094L101.469 48L106.18 34.7812H109.039ZM100.977 46.7578L96.0547 34.7812H98.8906L102.266 43.6641L101.938 44.4609L100.977 46.7578ZM112.273 30.7266H115.086V48H112.273V30.7266ZM117.477 30.7266C118.93 30.7266 120.203 30.9609 121.297 31.4297C122.406 31.8828 123.32 32.4922 124.039 33.2578C124.773 34.0234 125.32 34.8984 125.68 35.8828C126.039 36.8516 126.219 37.8516 126.219 38.8828C126.219 40.3047 126.062 41.5234 125.75 42.5391C125.453 43.5391 125.07 44.3828 124.602 45.0703C124.133 45.7422 123.602 46.2734 123.008 46.6641C122.43 47.0547 121.867 47.3516 121.32 47.5547C120.773 47.7422 120.273 47.8672 119.82 47.9297C119.367 47.9766 119.031 48 118.812 48H116.047V45.9375H117.875C119.781 45.9375 121.156 45.3281 122 44.1094C122.844 42.8906 123.266 41.125 123.266 38.8125C123.266 38.0938 123.18 37.3828 123.008 36.6797C122.836 35.9766 122.5 35.3438 122 34.7812C121.516 34.2031 120.852 33.7422 120.008 33.3984C119.164 33.0391 118.07 32.8594 116.727 32.8594H116.047V30.7266H117.477ZM136.297 34.7109C137.156 34.7578 137.938 34.9688 138.641 35.3438C139.344 35.7031 139.93 36.1875 140.398 36.7969C140.883 37.3906 141.258 38.0859 141.523 38.8828C141.789 39.6797 141.922 40.5312 141.922 41.4375C141.922 42.3438 141.781 43.1953 141.5 43.9922C141.234 44.7734 140.859 45.4609 140.375 46.0547C139.891 46.6328 139.297 47.1016 138.594 47.4609C137.891 47.8203 137.125 48.0312 136.297 48.0938V45.8438C137.078 45.6719 137.711 45.1797 138.195 44.3672C138.695 43.5547 138.945 42.5781 138.945 41.4375C138.945 40.8594 138.883 40.3203 138.758 39.8203C138.648 39.3047 138.477 38.8438 138.242 38.4375C138.008 38.0312 137.727 37.6953 137.398 37.4297C137.07 37.1641 136.703 36.9922 136.297 36.9141V34.7109ZM129.758 41.3906C129.758 40.4844 129.891 39.6406 130.156 38.8594C130.422 38.0781 130.797 37.3984 131.281 36.8203C131.781 36.2266 132.375 35.75 133.062 35.3906C133.75 35.0312 134.508 34.8125 135.336 34.7344V36.9141C134.555 37.0859 133.93 37.5781 133.461 38.3906C132.992 39.2031 132.758 40.1797 132.758 41.3203C132.758 41.8984 132.812 42.4453 132.922 42.9609C133.047 43.4766 133.219 43.9375 133.438 44.3438C133.656 44.75 133.922 45.0859 134.234 45.3516C134.562 45.6172 134.93 45.7812 135.336 45.8438V48.0938C134.477 48.0312 133.703 47.8203 133.016 47.4609C132.328 47.0859 131.742 46.6016 131.258 46.0078C130.773 45.4141 130.398 44.7188 130.133 43.9219C129.883 43.125 129.758 42.2812 129.758 41.3906ZM151.812 34.7109C152.672 34.7578 153.453 34.9688 154.156 35.3438C154.859 35.7031 155.445 36.1875 155.914 36.7969C156.398 37.3906 156.773 38.0859 157.039 38.8828C157.305 39.6797 157.438 40.5312 157.438 41.4375C157.438 42.3438 157.297 43.1953 157.016 43.9922C156.75 44.7734 156.375 45.4609 155.891 46.0547C155.406 46.6328 154.812 47.1016 154.109 47.4609C153.406 47.8203 152.641 48.0312 151.812 48.0938V45.8438C152.594 45.6719 153.227 45.1797 153.711 44.3672C154.211 43.5547 154.461 42.5781 154.461 41.4375C154.461 40.8594 154.398 40.3203 154.273 39.8203C154.164 39.3047 153.992 38.8438 153.758 38.4375C153.523 38.0312 153.242 37.6953 152.914 37.4297C152.586 37.1641 152.219 36.9922 151.812 36.9141V34.7109ZM145.273 41.3906C145.273 40.4844 145.406 39.6406 145.672 38.8594C145.938 38.0781 146.312 37.3984 146.797 36.8203C147.297 36.2266 147.891 35.75 148.578 35.3906C149.266 35.0312 150.023 34.8125 150.852 34.7344V36.9141C150.07 37.0859 149.445 37.5781 148.977 38.3906C148.508 39.2031 148.273 40.1797 148.273 41.3203C148.273 41.8984 148.328 42.4453 148.438 42.9609C148.562 43.4766 148.734 43.9375 148.953 44.3438C149.172 44.75 149.438 45.0859 149.75 45.3516C150.078 45.6172 150.445 45.7812 150.852 45.8438V48.0938C149.992 48.0312 149.219 47.8203 148.531 47.4609C147.844 47.0859 147.258 46.6016 146.773 46.0078C146.289 45.4141 145.914 44.7188 145.648 43.9219C145.398 43.125 145.273 42.2812 145.273 41.3906Z" fill="black"/>
<path d="M47.4687 35.9786H40.7187V34.3829H47.4687V35.9786Z" fill="#E0E0E0"/>
<path d="M66.169 50.1234L65.4405 51.3319C64.5293 52.8465 63.033 52.8465 62.1218 51.3319L61.3933 50.1234C61.7337 49.2026 62.6758 48.5436 63.7812 48.5436C64.8865 48.5436 65.8287 49.2026 66.169 50.1234Z" fill="#E0E0E0"/>
<path d="M65.7498 28.0003H61.8123C60.5718 28.0003 59.5623 28.9548 59.5623 30.1279V32.2556H60.6873V30.1279C60.6873 29.5412 61.1919 29.0641 61.8123 29.0641H65.7498C66.3703 29.0641 66.8748 29.5412 66.8748 30.1279V32.2556H67.9998V30.1279C67.9998 28.9548 66.9904 28.0003 65.7498 28.0003Z" fill="#FF7415"/>
<path d="M38.75 40.4999H49.4375V39.4361H38.75V40.4999Z" fill="#FF7415"/>
<path d="M38.75 43.1593H47.1875V42.0954H38.75V43.1593Z" fill="#FF7415"/>
<path d="M38.75 45.8193H44.9375V44.7555H38.75V45.8193Z" fill="#FF7415"/>
<path d="M53.6563 36.7766V31.2154C54.453 31.3428 55.0625 31.9981 55.0625 32.7872V36.7766H53.6563ZM55.0625 42.0957H53.6563V40.5H55.0625V42.0957ZM55.0625 50.3404C55.0625 51.2205 54.3057 51.9362 53.375 51.9362H53.0884C53.4431 51.491 53.6563 50.9394 53.6563 50.3404V45.8191H55.0625V50.3404ZM49.7188 51.9362H37.3438C36.4131 51.9362 35.6563 51.2205 35.6563 50.3404V46.3511H36.5V45.2872H35.6563V42.0957H36.5V41.0319H35.6563V37.8404H36.5V36.7766H35.6563V33.5851H36.5V32.5213H35.6563V30.6596C35.6563 29.7795 36.4131 29.0638 37.3438 29.0638H50.8438C51.7744 29.0638 52.5313 29.7795 52.5313 30.6596V50.3404C52.5313 51.2205 51.7744 51.9362 50.8438 51.9362H49.7188ZM33.6875 47.4149C33.3773 47.4149 33.125 47.1763 33.125 46.883C33.125 46.5896 33.3773 46.3511 33.6875 46.3511H34.5313V47.4149H33.6875ZM33.6875 43.1596C33.3773 43.1596 33.125 42.921 33.125 42.6277C33.125 42.3343 33.3773 42.0957 33.6875 42.0957H34.5313V43.1596H33.6875ZM33.6875 38.9043C33.3773 38.9043 33.125 38.6657 33.125 38.3723C33.125 38.079 33.3773 37.8404 33.6875 37.8404H34.5313V38.9043H33.6875ZM33.6875 34.6489C33.3773 34.6489 33.125 34.4104 33.125 34.117C33.125 33.8237 33.3773 33.5851 33.6875 33.5851H34.5313V34.6489H33.6875ZM53.6563 43.1596H55.0625V44.7553H53.6563V43.1596ZM53.6563 37.8404H55.0625V39.4362H53.6563V37.8404ZM53.6014 30.1386C53.3443 28.9207 52.2058 28 50.8438 28H37.3438C35.7929 28 34.5313 29.1931 34.5313 30.6596V32.5213H33.6875C32.7568 32.5213 32 33.237 32 34.117C32 34.9971 32.7568 35.7128 33.6875 35.7128H34.5313V36.7766H33.6875C32.7568 36.7766 32 37.4923 32 38.3723C32 39.2524 32.7568 39.9681 33.6875 39.9681H34.5313V41.0319H33.6875C32.7568 41.0319 32 41.7476 32 42.6277C32 43.5077 32.7568 44.2234 33.6875 44.2234H34.5313V45.2872H33.6875C32.7568 45.2872 32 46.0029 32 46.883C32 47.763 32.7568 48.4787 33.6875 48.4787H34.5313V50.3404C34.5313 51.8069 35.7929 53 37.3438 53H49.7188H50.8438H53.375C54.9258 53 56.1875 51.8069 56.1875 50.3404V45.8191V42.0957V40.5V36.7766V32.7872C56.1875 31.3931 55.0465 30.2481 53.6014 30.1386Z" fill="#262626"/>
<path d="M39.875 33.5851H48.3125V36.7766H39.875V33.5851ZM38.75 37.8405H49.4375V32.5213H38.75V37.8405Z" fill="#262626"/>
<path d="M65.7498 44.4144V36.5104H64.6248V44.0364C64.352 43.9848 64.0699 43.9572 63.7811 43.9572C62.5582 43.9572 61.4585 44.4479 60.6873 45.2253V34.9146H61.8123V42.3614H62.9373V34.9146H66.8748V45.2253C66.552 44.8997 66.1734 44.6237 65.7498 44.4144ZM64.9531 51.0676C64.6203 51.6192 64.1934 51.9354 63.7811 51.9354C63.3688 51.9354 62.9418 51.6192 62.6091 51.0676L60.6873 47.8795C60.6933 46.3027 62.079 45.021 63.7811 45.021C65.4832 45.021 66.8689 46.3027 66.8748 47.8795L64.9531 51.0676ZM66.8748 33.8508H60.6873V32.787H66.8748V33.8508ZM67.9998 31.7231H59.5623V47.6806H59.5736C59.5697 47.7503 59.5623 47.8192 59.5623 47.8899V48.1614L61.6318 51.5942C62.178 52.5003 62.9413 52.9992 63.7811 52.9992C64.6209 52.9992 65.3842 52.5003 65.9304 51.5942L67.9998 48.1614V47.8899C67.9998 47.8192 67.9925 47.7503 67.9886 47.6806H67.9998V31.7231Z" fill="#262626"/>
<path d="M32.4831 63.0252L18.0425 38.534L32.563 17.0252" stroke="black" stroke-width="2"/>
<line x1="62.7071" y1="16.2929" x2="74.7071" y2="28.2929" stroke="black" stroke-width="2"/>
<line x1="32" y1="62" x2="61" y2="62" stroke="black" stroke-width="2"/>
<line x1="32" y1="17" x2="63" y2="17" stroke="#FF7A00" stroke-width="2"/>
<line y1="-1" x2="18" y2="-1" transform="matrix(0.792785 -0.609502 0.659877 0.751374 61 62.971)" stroke="#FF7415" stroke-width="2"/>
</svg>
