<svg width="397" height="220" viewBox="0 0 397 220" fill="none" xmlns="http://www.w3.org/2000/svg">
<path d="M213.312 86.4531H219.031L228.312 107.781V116.453H226.812L219.031 97.2344V121H213.312V86.4531ZM239.516 86.4531H245.234V121H239.516V97.2344L231.781 116.453H230.234V107.875L239.516 86.4531ZM279.078 94.5625C277.359 99.1562 275.828 103.234 274.484 106.797C273.141 110.328 271.969 113.438 270.969 116.125C269.969 118.781 269.078 121.031 268.297 122.875C267.547 124.719 266.844 126.25 266.188 127.469C265.562 128.719 264.969 129.688 264.406 130.375C263.844 131.094 263.266 131.641 262.672 132.016C262.078 132.391 261.422 132.609 260.703 132.672C260.016 132.766 259.219 132.812 258.312 132.812C258.031 132.812 257.703 132.766 257.328 132.672C256.953 132.609 256.578 132.516 256.203 132.391C255.859 132.297 255.547 132.188 255.266 132.062C254.984 131.969 254.797 131.906 254.703 131.875C254.828 131.312 254.953 130.781 255.078 130.281C255.172 129.844 255.266 129.422 255.359 129.016C255.484 128.641 255.578 128.375 255.641 128.219C255.891 128.219 256.266 128.297 256.766 128.453C257.297 128.609 257.688 128.688 257.938 128.688C258.438 128.688 258.875 128.656 259.25 128.594C259.656 128.562 260.016 128.422 260.328 128.172C260.641 127.953 260.938 127.609 261.219 127.141C261.5 126.703 261.812 126.062 262.156 125.219L263.938 121L273.359 94.5625H279.078ZM262.953 118.516L253.109 94.5625H258.781L265.531 112.328L264.875 113.922L262.953 118.516ZM285.547 86.4531H291.172V121H285.547V86.4531ZM295.953 86.4531C298.859 86.4531 301.406 86.9219 303.594 87.8594C305.812 88.7656 307.641 89.9844 309.078 91.5156C310.547 93.0469 311.641 94.7969 312.359 96.7656C313.078 98.7031 313.438 100.703 313.438 102.766C313.438 105.609 313.125 108.047 312.5 110.078C311.906 112.078 311.141 113.766 310.203 115.141C309.266 116.484 308.203 117.547 307.016 118.328C305.859 119.109 304.734 119.703 303.641 120.109C302.547 120.484 301.547 120.734 300.641 120.859C299.734 120.953 299.062 121 298.625 121H293.094V116.875H296.75C300.562 116.875 303.312 115.656 305 113.219C306.688 110.781 307.531 107.25 307.531 102.625C307.531 101.188 307.359 99.7656 307.016 98.3594C306.672 96.9531 306 95.6875 305 94.5625C304.031 93.4062 302.703 92.4844 301.016 91.7969C299.328 91.0781 297.141 90.7188 294.453 90.7188H293.094V86.4531H295.953ZM333.594 94.4219C335.312 94.5156 336.875 94.9375 338.281 95.6875C339.688 96.4062 340.859 97.375 341.797 98.5938C342.766 99.7812 343.516 101.172 344.047 102.766C344.578 104.359 344.844 106.062 344.844 107.875C344.844 109.688 344.562 111.391 344 112.984C343.469 114.547 342.719 115.922 341.75 117.109C340.781 118.266 339.594 119.203 338.188 119.922C336.781 120.641 335.25 121.062 333.594 121.188V116.688C335.156 116.344 336.422 115.359 337.391 113.734C338.391 112.109 338.891 110.156 338.891 107.875C338.891 106.719 338.766 105.641 338.516 104.641C338.297 103.609 337.953 102.688 337.484 101.875C337.016 101.062 336.453 100.391 335.797 99.8594C335.141 99.3281 334.406 98.9844 333.594 98.8281V94.4219ZM320.516 107.781C320.516 105.969 320.781 104.281 321.312 102.719C321.844 101.156 322.594 99.7969 323.562 98.6406C324.562 97.4531 325.75 96.5 327.125 95.7812C328.5 95.0625 330.016 94.625 331.672 94.4688V98.8281C330.109 99.1719 328.859 100.156 327.922 101.781C326.984 103.406 326.516 105.359 326.516 107.641C326.516 108.797 326.625 109.891 326.844 110.922C327.094 111.953 327.438 112.875 327.875 113.688C328.312 114.5 328.844 115.172 329.469 115.703C330.125 116.234 330.859 116.562 331.672 116.688V121.188C329.953 121.062 328.406 120.641 327.031 119.922C325.656 119.172 324.484 118.203 323.516 117.016C322.547 115.828 321.797 114.438 321.266 112.844C320.766 111.25 320.516 109.562 320.516 107.781ZM364.625 94.4219C366.344 94.5156 367.906 94.9375 369.312 95.6875C370.719 96.4062 371.891 97.375 372.828 98.5938C373.797 99.7812 374.547 101.172 375.078 102.766C375.609 104.359 375.875 106.062 375.875 107.875C375.875 109.688 375.594 111.391 375.031 112.984C374.5 114.547 373.75 115.922 372.781 117.109C371.812 118.266 370.625 119.203 369.219 119.922C367.812 120.641 366.281 121.062 364.625 121.188V116.688C366.188 116.344 367.453 115.359 368.422 113.734C369.422 112.109 369.922 110.156 369.922 107.875C369.922 106.719 369.797 105.641 369.547 104.641C369.328 103.609 368.984 102.688 368.516 101.875C368.047 101.062 367.484 100.391 366.828 99.8594C366.172 99.3281 365.438 98.9844 364.625 98.8281V94.4219ZM351.547 107.781C351.547 105.969 351.812 104.281 352.344 102.719C352.875 101.156 353.625 99.7969 354.594 98.6406C355.594 97.4531 356.781 96.5 358.156 95.7812C359.531 95.0625 361.047 94.625 362.703 94.4688V98.8281C361.141 99.1719 359.891 100.156 358.953 101.781C358.016 103.406 357.547 105.359 357.547 107.641C357.547 108.797 357.656 109.891 357.875 110.922C358.125 111.953 358.469 112.875 358.906 113.688C359.344 114.5 359.875 115.172 360.5 115.703C361.156 116.234 361.891 116.562 362.703 116.688V121.188C360.984 121.062 359.438 120.641 358.062 119.922C356.688 119.172 355.516 118.203 354.547 117.016C353.578 115.828 352.828 114.438 352.297 112.844C351.797 111.25 351.547 109.562 351.547 107.781Z" fill="black"/>
<path d="M131.857 94.2297H113.107V90.0503H131.857V94.2297Z" fill="#E0E0E0"/>
<path d="M183.803 131.275L181.779 134.441C179.248 138.407 175.092 138.407 172.56 134.441L170.537 131.275C171.482 128.864 174.1 127.138 177.17 127.138C180.24 127.138 182.857 128.864 183.803 131.275Z" fill="#E0E0E0"/>
<path d="M182.638 73.334H171.701C168.255 73.334 165.451 75.8339 165.451 78.9064V84.4789H168.576V78.9064C168.576 77.3698 169.978 76.1202 171.701 76.1202H182.638C184.362 76.1202 185.763 77.3698 185.763 78.9064V84.4789H188.888V78.9064C188.888 75.8339 186.085 73.334 182.638 73.334Z" fill="#FF7415"/>
<path d="M107.639 106.071H137.326V103.285H107.639V106.071Z" fill="#FF7415"/>
<path d="M107.639 113.036H131.076V110.25H107.639V113.036Z" fill="#FF7415"/>
<path d="M107.639 120.003H124.826V117.217H107.639V120.003Z" fill="#FF7415"/>
<path d="M149.045 96.3196V81.7547C151.258 82.0883 152.951 83.8046 152.951 85.8713V96.3196H149.045ZM152.951 110.251H149.045V106.071H152.951V110.251ZM152.951 131.844C152.951 134.149 150.849 136.023 148.264 136.023H147.468C148.453 134.857 149.045 133.413 149.045 131.844V120.003H152.951V131.844ZM138.108 136.023H103.733C101.147 136.023 99.0451 134.149 99.0451 131.844V121.396H101.389V118.609H99.0451V110.251H101.389V107.465H99.0451V99.1059H101.389V96.3196H99.0451V87.961H101.389V85.1748H99.0451V80.2989C99.0451 77.994 101.147 76.1195 103.733 76.1195H141.233C143.818 76.1195 145.92 77.994 145.92 80.2989V131.844C145.92 134.149 143.818 136.023 141.233 136.023H138.108ZM93.5764 124.182C92.7147 124.182 92.0139 123.557 92.0139 122.789C92.0139 122.02 92.7147 121.396 93.5764 121.396H95.9201V124.182H93.5764ZM93.5764 113.037C92.7147 113.037 92.0139 112.412 92.0139 111.644C92.0139 110.876 92.7147 110.251 93.5764 110.251H95.9201V113.037H93.5764ZM93.5764 101.892C92.7147 101.892 92.0139 101.267 92.0139 100.499C92.0139 99.7307 92.7147 99.1059 93.5764 99.1059H95.9201V101.892H93.5764ZM93.5764 90.7472C92.7147 90.7472 92.0139 90.1224 92.0139 89.3541C92.0139 88.5858 92.7147 87.961 93.5764 87.961H95.9201V90.7472H93.5764ZM149.045 113.037H152.951V117.216H149.045V113.037ZM149.045 99.1059H152.951V103.285H149.045V99.1059ZM148.893 78.9343C148.179 75.7448 145.016 73.3333 141.233 73.3333H103.733C99.4248 73.3333 95.9201 76.4581 95.9201 80.2989V85.1748H93.5764C90.9912 85.1748 88.8889 87.0492 88.8889 89.3541C88.8889 91.659 90.9912 93.5334 93.5764 93.5334H95.9201V96.3196H93.5764C90.9912 96.3196 88.8889 98.1941 88.8889 100.499C88.8889 102.804 90.9912 104.678 93.5764 104.678H95.9201V107.465H93.5764C90.9912 107.465 88.8889 109.339 88.8889 111.644C88.8889 113.949 90.9912 115.823 93.5764 115.823H95.9201V118.609H93.5764C90.9912 118.609 88.8889 120.484 88.8889 122.789C88.8889 125.094 90.9912 126.968 93.5764 126.968H95.9201V131.844C95.9201 135.685 99.4248 138.81 103.733 138.81H138.108H141.233H148.264C152.572 138.81 156.076 135.685 156.076 131.844V120.003V110.251V106.071V96.3196V85.8713C156.076 82.22 152.907 79.2213 148.893 78.9343Z" fill="#262626"/>
<path d="M110.764 87.9611H134.201V96.3197H110.764V87.9611ZM107.639 99.106H137.326V85.1749H107.639V99.106Z" fill="#262626"/>
<path d="M182.638 116.323V95.6224H179.513V115.334C178.756 115.198 177.972 115.126 177.17 115.126C173.773 115.126 170.718 116.411 168.576 118.447V91.4431H171.701V110.947H174.826V91.4431H185.763V118.447C184.867 117.595 183.815 116.872 182.638 116.323ZM180.425 133.748C179.501 135.193 178.315 136.021 177.17 136.021C176.024 136.021 174.838 135.193 173.914 133.748L168.576 125.399C168.592 121.269 172.442 117.912 177.17 117.912C181.898 117.912 185.747 121.269 185.763 125.399L180.425 133.748ZM185.763 88.6569H168.576V85.8706H185.763V88.6569ZM188.888 83.0844H165.451V124.878H165.482C165.471 125.06 165.451 125.241 165.451 125.426V126.137L171.199 135.128C172.717 137.501 174.837 138.807 177.17 138.807C179.503 138.807 181.623 137.501 183.14 135.128L188.888 126.137V125.426C188.888 125.241 188.868 125.06 188.857 124.878H188.888V83.0844Z" fill="#262626"/>
<path d="M90.2307 165.066L70.1744 132.994L50.1181 100.922L90.4527 44.5897" stroke="black" stroke-width="4"/>
<path d="M173 44.5L206.333 75.9286" stroke="black" stroke-width="4"/>
<line x1="88.8889" y1="163" x2="169.444" y2="163" stroke="black" stroke-width="4"/>
<line x1="88.8889" y1="45.1428" x2="175" y2="45.1428" stroke="#FF7A00" stroke-width="4"/>
<line y1="-2" x2="48.9581" y2="-2" transform="matrix(0.809657 -0.586903 0.681582 0.731741 169.444 164.924)" stroke="#FF7415" stroke-width="4"/>
</svg>
