<svg width="25" height="25" viewBox="0 0 25 25" fill="none" xmlns="http://www.w3.org/2000/svg">
<g clip-path="url(#clip0_12_268)">
<path d="M12.5 25C19.4036 25 25 19.4036 25 12.5C25 5.59644 19.4036 0 12.5 0C5.59644 0 0 5.59644 0 12.5C0 19.4036 5.59644 25 12.5 25Z" fill="#FF7415"/>
<path d="M10.6055 18.9844L4.84375 13.2227C4.76563 13.1445 4.76563 13.0273 4.84375 12.9492L6.50391 11.2891C6.58203 11.2109 6.69922 11.2109 6.77734 11.2891L10.7422 15.2539L18.2031 7.79297C18.2812 7.71484 18.3984 7.71484 18.4766 7.79297L20.1367 9.45312C20.2148 9.53125 20.2148 9.64844 20.1367 9.72656L10.8789 18.9844C10.8008 19.0625 10.6836 19.0625 10.6055 18.9844Z" fill="white"/>
</g>
<defs>
<clipPath id="clip0_12_268">
<rect width="25" height="25" fill="white"/>
</clipPath>
</defs>
</svg>
