<svg width="50" height="50" viewBox="0 0 50 50" fill="none" xmlns="http://www.w3.org/2000/svg">
<path d="M25 1C20.2533 1 15.6131 2.40758 11.6663 5.04473C7.71954 7.68188 4.64341 11.4302 2.8269 15.8156C1.0104 20.201 0.535119 25.0266 1.46116 29.6822C2.38721 34.3377 4.67299 38.6141 8.02945 41.9706C11.3859 45.327 15.6623 47.6128 20.3178 48.5388C24.9734 49.4649 29.799 48.9896 34.1844 47.1731C38.5698 45.3566 42.3181 42.2805 44.9553 38.3337C47.5924 34.3869 49 29.7468 49 25C49 18.6348 46.4714 12.5303 41.9706 8.02944C37.4697 3.52856 31.3652 1 25 1ZM25 47C20.6488 47 16.3953 45.7097 12.7775 43.2923C9.15958 40.8749 6.33979 37.439 4.67466 33.419C3.00953 29.3991 2.57386 24.9756 3.42273 20.708C4.27161 16.4404 6.36691 12.5204 9.44366 9.44365C12.5204 6.3669 16.4404 4.2716 20.708 3.42272C24.9756 2.57385 29.3991 3.00952 33.419 4.67465C37.439 6.33978 40.875 9.15957 43.2923 12.7775C45.7097 16.3953 47 20.6488 47 25C47 30.8348 44.6822 36.4305 40.5564 40.5564C36.4306 44.6822 30.8348 47 25 47Z" fill="black"/>
<path d="M25 25.41C21.5522 25.41 18.2456 26.7796 15.8076 29.2176C13.3696 31.6556 12 34.9622 12 38.41C12 38.6752 12.1054 38.9296 12.2929 39.1171C12.4804 39.3046 12.7348 39.41 13 39.41C13.2652 39.41 13.5196 39.3046 13.7071 39.1171C13.8946 38.9296 14 38.6752 14 38.41C14 35.4926 15.1589 32.6947 17.2218 30.6318C19.2847 28.5689 22.0826 27.41 25 27.41C27.9174 27.41 30.7153 28.5689 32.7782 30.6318C34.8411 32.6947 36 35.4926 36 38.41C36 38.6752 36.1054 38.9296 36.2929 39.1171C36.4804 39.3046 36.7348 39.41 37 39.41C37.2652 39.41 37.5196 39.3046 37.7071 39.1171C37.8946 38.9296 38 38.6752 38 38.41C38 36.7028 37.6637 35.0124 37.0104 33.4351C36.3571 31.8579 35.3995 30.4248 34.1924 29.2176C32.9852 28.0105 31.5521 27.0529 29.9749 26.3996C28.3977 25.7463 26.7072 25.41 25 25.41Z" fill="#FF7415"/>
<path d="M25 23.71C25.9202 23.6854 26.8266 23.4795 27.6671 23.1042C28.5077 22.7288 29.2659 22.1914 29.8985 21.5226C30.5311 20.8538 31.0255 20.0668 31.3535 19.2067C31.6815 18.3465 31.8366 17.4302 31.81 16.51C31.838 15.589 31.6838 14.6715 31.3564 13.8102C31.029 12.949 30.5348 12.1608 29.9021 11.4909C29.2694 10.8211 28.5107 10.2827 27.6695 9.90674C26.8283 9.53077 25.9211 9.32457 25 9.29999C24.0789 9.32457 23.1717 9.53077 22.3305 9.90674C21.4893 10.2827 20.7306 10.8211 20.0979 11.4909C19.4652 12.1608 18.971 12.949 18.6436 13.8102C18.3162 14.6715 18.162 15.589 18.19 16.51C18.1634 17.4302 18.3185 18.3465 18.6465 19.2067C18.9745 20.0668 19.4689 20.8538 20.1015 21.5226C20.7341 22.1914 21.4923 22.7288 22.3329 23.1042C23.1734 23.4795 24.0798 23.6854 25 23.71ZM25 11.3C25.6585 11.3244 26.3057 11.4788 26.9043 11.7542C27.503 12.0296 28.0413 12.4207 28.4883 12.9049C28.9353 13.389 29.2822 13.9568 29.509 14.5755C29.7358 15.1942 29.8381 15.8516 29.81 16.51C29.8368 17.1675 29.7335 17.8239 29.506 18.4414C29.2786 19.059 28.9315 19.6255 28.4846 20.1087C28.0378 20.5918 27.4999 20.9819 26.9019 21.2567C26.304 21.5315 25.6576 21.6855 25 21.71C24.3424 21.6855 23.696 21.5315 23.098 21.2567C22.5001 20.9819 21.9622 20.5918 21.5154 20.1087C21.0685 19.6255 20.7214 19.059 20.4939 18.4414C20.2665 17.8239 20.1632 17.1675 20.19 16.51C20.1619 15.8516 20.2642 15.1942 20.491 14.5755C20.7178 13.9568 21.0647 13.389 21.5117 12.9049C21.9587 12.4207 22.497 12.0296 23.0956 11.7542C23.6943 11.4788 24.3415 11.3244 25 11.3Z" fill="black"/>
</svg>
