<svg width="40" height="40" viewBox="0 0 40 40" fill="none" xmlns="http://www.w3.org/2000/svg">
<g clip-path="url(#clip0_3_34)">
<path d="M20 12.1875C18.4548 12.1875 16.9444 12.6457 15.6596 13.5041C14.3749 14.3626 13.3735 15.5827 12.7822 17.0103C12.1909 18.4378 12.0362 20.0087 12.3376 21.5241C12.6391 23.0396 13.3831 24.4317 14.4757 25.5243C15.5683 26.6169 16.9604 27.3609 18.4759 27.6624C19.9913 27.9638 21.5622 27.8091 22.9897 27.2178C24.4173 26.6265 25.6374 25.6252 26.4959 24.3404C27.3543 23.0556 27.8125 21.5452 27.8125 20C27.8125 17.928 26.9894 15.9409 25.5243 14.4757C24.0591 13.0106 22.072 12.1875 20 12.1875ZM20 25.9375C18.8257 25.9375 17.6777 25.5893 16.7013 24.9368C15.7249 24.2844 14.9639 23.3571 14.5145 22.2722C14.0651 21.1872 13.9475 19.9934 14.1766 18.8417C14.4057 17.6899 14.9712 16.6319 15.8016 15.8016C16.6319 14.9712 17.6899 14.4057 18.8417 14.1766C19.9934 13.9475 21.1873 14.0651 22.2722 14.5145C23.3571 14.9639 24.2844 15.7249 24.9369 16.7013C25.5893 17.6777 25.9375 18.8257 25.9375 20C25.9375 21.5747 25.3119 23.0849 24.1985 24.1984C23.085 25.3119 21.5747 25.9375 20 25.9375Z" fill="#FF7415"/>
<path d="M37.8125 15H35.0219C34.9569 14.9995 34.8937 14.9788 34.841 14.9407C34.7884 14.9026 34.7489 14.8491 34.7281 14.7875C34.5465 14.2717 34.3379 13.7658 34.1031 13.2719C34.0738 13.2136 34.0635 13.1476 34.0736 13.0832C34.0837 13.0187 34.1137 12.959 34.1594 12.9125L36.1313 10.9375C36.3344 10.7344 36.4956 10.4932 36.6055 10.2278C36.7154 9.96238 36.772 9.67791 36.772 9.39062C36.772 9.10334 36.7154 8.81887 36.6055 8.55345C36.4956 8.28804 36.3344 8.04688 36.1313 7.84375L32.1531 3.86875C31.95 3.6656 31.7088 3.50445 31.4434 3.3945C31.178 3.28456 30.8935 3.22797 30.6063 3.22797C30.319 3.22797 30.0345 3.28456 29.7691 3.3945C29.5037 3.50445 29.2625 3.6656 29.0594 3.86875L27.0875 5.84063C27.041 5.88634 26.9813 5.91634 26.9168 5.92643C26.8524 5.93651 26.7864 5.92618 26.7281 5.89688C26.2343 5.66204 25.7283 5.45341 25.2125 5.27188C25.1509 5.25108 25.0974 5.21162 25.0593 5.15897C25.0212 5.10632 25.0005 5.0431 25 4.97813V2.1875C25 1.60734 24.7695 1.05094 24.3593 0.640704C23.9491 0.230468 23.3927 0 22.8125 0H17.1875C16.6073 0 16.0509 0.230468 15.6407 0.640704C15.2305 1.05094 15 1.60734 15 2.1875V4.97813C14.9995 5.0431 14.9788 5.10632 14.9407 5.15897C14.9026 5.21162 14.8491 5.25108 14.7875 5.27188C14.2717 5.45349 13.7658 5.66211 13.2719 5.89688C13.2136 5.92618 13.1476 5.93651 13.0832 5.92643C13.0187 5.91634 12.959 5.88634 12.9125 5.84063L10.9375 3.86875C10.7344 3.6656 10.4932 3.50445 10.2278 3.3945C9.96238 3.28456 9.67791 3.22797 9.39062 3.22797C9.10334 3.22797 8.81887 3.28456 8.55345 3.3945C8.28804 3.50445 8.04688 3.6656 7.84375 3.86875L3.86875 7.84688C3.6656 8.05001 3.50445 8.29116 3.3945 8.55658C3.28456 8.82199 3.22797 9.10646 3.22797 9.39375C3.22797 9.68104 3.28456 9.96551 3.3945 10.2309C3.50445 10.4963 3.6656 10.7375 3.86875 10.9406L5.84063 12.9125C5.88634 12.959 5.91634 13.0187 5.92643 13.0832C5.93651 13.1476 5.92618 13.2136 5.89688 13.2719C5.66204 13.7657 5.45341 14.2717 5.27188 14.7875C5.25108 14.8491 5.21162 14.9026 5.15897 14.9407C5.10632 14.9788 5.0431 14.9995 4.97813 15H2.1875C1.60734 15 1.05094 15.2305 0.640704 15.6407C0.230468 16.0509 0 16.6073 0 17.1875L0 22.8125C0 23.3927 0.230468 23.9491 0.640704 24.3593C1.05094 24.7695 1.60734 25 2.1875 25H4.97813C5.0431 25.0005 5.10632 25.0212 5.15897 25.0593C5.21162 25.0974 5.25108 25.1509 5.27188 25.2125C5.45349 25.7283 5.66211 26.2342 5.89688 26.7281C5.92618 26.7864 5.93651 26.8524 5.92643 26.9168C5.91634 26.9813 5.88634 27.041 5.84063 27.0875L3.86875 29.0625C3.6656 29.2656 3.50445 29.5068 3.3945 29.7722C3.28456 30.0376 3.22797 30.3221 3.22797 30.6094C3.22797 30.8967 3.28456 31.1811 3.3945 31.4465C3.50445 31.712 3.6656 31.9531 3.86875 32.1562L7.84688 36.1344C8.05001 36.3375 8.29116 36.4987 8.55658 36.6086C8.82199 36.7186 9.10646 36.7752 9.39375 36.7752C9.68104 36.7752 9.96551 36.7186 10.2309 36.6086C10.4963 36.4987 10.7375 36.3375 10.9406 36.1344L12.9125 34.1625C12.959 34.1168 13.0187 34.0868 13.0832 34.0767C13.1476 34.0666 13.2136 34.0769 13.2719 34.1063C13.7657 34.3411 14.2717 34.5497 14.7875 34.7313C14.8491 34.752 14.9026 34.7915 14.9407 34.8442C14.9788 34.8968 14.9995 34.96 15 35.025V37.8125C15 38.3927 15.2305 38.9491 15.6407 39.3593C16.0509 39.7695 16.6073 40 17.1875 40H22.8125C23.3927 40 23.9491 39.7695 24.3593 39.3593C24.7695 38.9491 25 38.3927 25 37.8125V35.0219C25.0005 34.9569 25.0212 34.8937 25.0593 34.841C25.0974 34.7884 25.1509 34.7489 25.2125 34.7281C25.7283 34.5465 26.2342 34.3379 26.7281 34.1031C26.7864 34.0738 26.8524 34.0635 26.9168 34.0736C26.9813 34.0837 27.041 34.1137 27.0875 34.1594L29.0625 36.1313C29.2656 36.3344 29.5068 36.4956 29.7722 36.6055C30.0376 36.7154 30.3221 36.772 30.6094 36.772C30.8967 36.772 31.1811 36.7154 31.4465 36.6055C31.712 36.4956 31.9531 36.3344 32.1562 36.1313L36.1344 32.1531C36.3375 31.95 36.4987 31.7088 36.6086 31.4434C36.7186 31.178 36.7752 30.8935 36.7752 30.6063C36.7752 30.319 36.7186 30.0345 36.6086 29.7691C36.4987 29.5037 36.3375 29.2625 36.1344 29.0594L34.1625 27.0875C34.1168 27.041 34.0868 26.9813 34.0767 26.9168C34.0666 26.8524 34.0769 26.7864 34.1063 26.7281C34.3411 26.2343 34.5497 25.7283 34.7313 25.2125C34.752 25.1509 34.7915 25.0974 34.8442 25.0593C34.8968 25.0212 34.96 25.0005 35.025 25H37.8125C38.3927 25 38.9491 24.7695 39.3593 24.3593C39.7695 23.9491 40 23.3927 40 22.8125V17.1875C40 16.6073 39.7695 16.0509 39.3593 15.6407C38.9491 15.2305 38.3927 15 37.8125 15ZM38.125 22.8125C38.125 22.8954 38.0921 22.9749 38.0335 23.0335C37.9749 23.0921 37.8954 23.125 37.8125 23.125H35.0219C34.5686 23.1255 34.1267 23.2668 33.7572 23.5294C33.3877 23.7919 33.109 24.1628 32.9594 24.5906C32.7995 25.0437 32.6159 25.4881 32.4094 25.9219C32.2114 26.3308 32.1456 26.7912 32.2212 27.2392C32.2968 27.6872 32.51 28.1006 32.8312 28.4219L34.8031 30.3938C34.8613 30.4523 34.894 30.5315 34.894 30.6141C34.894 30.6966 34.8613 30.7758 34.8031 30.8344L30.8281 34.8062C30.7696 34.8645 30.6904 34.8971 30.6078 34.8971C30.5253 34.8971 30.4461 34.8645 30.3875 34.8062L28.4156 32.8344C28.0943 32.5131 27.681 32.2999 27.233 32.2243C26.785 32.1487 26.3245 32.2145 25.9156 32.4125C25.4808 32.6191 25.0354 32.8027 24.5813 32.9625C24.154 33.1126 23.7838 33.3916 23.5218 33.7611C23.2599 34.1305 23.119 34.5721 23.1188 35.025V37.8125C23.1188 37.8954 23.0858 37.9749 23.0272 38.0335C22.9686 38.0921 22.8891 38.125 22.8063 38.125H17.1875C17.1046 38.125 17.0251 38.0921 16.9665 38.0335C16.9079 37.9749 16.875 37.8954 16.875 37.8125V35.0219C16.8745 34.5686 16.7332 34.1267 16.4706 33.7572C16.2081 33.3877 15.8372 33.109 15.4094 32.9594C14.9563 32.7995 14.5119 32.6159 14.0781 32.4094C13.6692 32.2114 13.2088 32.1456 12.7608 32.2212C12.3128 32.2968 11.8994 32.51 11.5781 32.8312L9.60625 34.8031C9.5477 34.8613 9.4685 34.894 9.38594 34.894C9.30338 34.894 9.22418 34.8613 9.16562 34.8031L5.19375 30.8281C5.13555 30.7696 5.10288 30.6904 5.10288 30.6078C5.10288 30.5253 5.13555 30.4461 5.19375 30.3875L7.16563 28.4156C7.48686 28.0943 7.70008 27.681 7.77568 27.233C7.85128 26.785 7.78551 26.3245 7.5875 25.9156C7.38087 25.4808 7.19728 25.0354 7.0375 24.5813C6.88654 24.1556 6.60755 23.7872 6.23883 23.5264C5.8701 23.2657 5.42972 23.1255 4.97813 23.125H2.1875C2.10462 23.125 2.02513 23.0921 1.96653 23.0335C1.90792 22.9749 1.875 22.8954 1.875 22.8125V17.1875C1.875 17.1046 1.90792 17.0251 1.96653 16.9665C2.02513 16.9079 2.10462 16.875 2.1875 16.875H4.97813C5.43139 16.8745 5.8733 16.7332 6.24278 16.4706C6.61225 16.2081 6.89105 15.8372 7.04063 15.4094C7.20052 14.9563 7.38411 14.5119 7.59063 14.0781C7.78863 13.6692 7.85441 13.2088 7.7788 12.7608C7.7032 12.3128 7.48998 11.8994 7.16875 11.5781L5.19687 9.60625C5.13867 9.5477 5.106 9.4685 5.106 9.38594C5.106 9.30338 5.13867 9.22418 5.19687 9.16562L9.17188 5.19375C9.23043 5.13555 9.30963 5.10288 9.39219 5.10288C9.47475 5.10288 9.55395 5.13555 9.6125 5.19375L11.5844 7.16563C11.9057 7.48686 12.319 7.70008 12.767 7.77568C13.215 7.85128 13.6755 7.78551 14.0844 7.5875C14.5192 7.38087 14.9646 7.19728 15.4187 7.0375C15.8444 6.88654 16.2128 6.60755 16.4736 6.23883C16.7343 5.8701 16.8745 5.42972 16.875 4.97813V2.1875C16.875 2.10462 16.9079 2.02513 16.9665 1.96653C17.0251 1.90792 17.1046 1.875 17.1875 1.875H22.8125C22.8954 1.875 22.9749 1.90792 23.0335 1.96653C23.0921 2.02513 23.125 2.10462 23.125 2.1875V4.97813C23.1255 5.43139 23.2668 5.8733 23.5294 6.24278C23.7919 6.61225 24.1628 6.89105 24.5906 7.04063C25.0437 7.20052 25.4881 7.38411 25.9219 7.59063C26.3308 7.78863 26.7912 7.85441 27.2392 7.7788C27.6872 7.7032 28.1006 7.48998 28.4219 7.16875L30.3938 5.19687C30.4523 5.13867 30.5315 5.106 30.6141 5.106C30.6966 5.106 30.7758 5.13867 30.8344 5.19687L34.8125 9.175C34.8707 9.23355 34.9034 9.31275 34.9034 9.39531C34.9034 9.47787 34.8707 9.55707 34.8125 9.61563L32.8406 11.5875C32.5194 11.9088 32.3062 12.3221 32.2306 12.7701C32.155 13.2182 32.2207 13.6786 32.4188 14.0875C32.6254 14.5223 32.809 14.9677 32.9688 15.4219C33.1188 15.8492 33.3979 16.2193 33.7673 16.4813C34.1367 16.7433 34.5784 16.8841 35.0312 16.8844H37.8125C37.8954 16.8844 37.9749 16.9173 38.0335 16.9759C38.0921 17.0345 38.125 17.114 38.125 17.1969V22.8125Z" fill="#FF7415"/>
</g>
<defs>
<clipPath id="clip0_3_34">
<rect width="40" height="40" rx="10" fill="white"/>
</clipPath>
</defs>
</svg>
