<svg width="45" height="45" viewBox="0 0 45 45" fill="none" xmlns="http://www.w3.org/2000/svg">
<path d="M25.6624 31.3215C25.6624 30.822 25.614 30.3344 25.5418 29.8572L29.072 27.8154L25.4117 21.4793L21.8854 23.5162C21.1243 22.907 20.2679 22.4139 19.3461 22.048V17.9763H12.0284V22.048C11.1437 22.3986 10.3199 22.8729 9.57814 23.4465L6.07308 21.3681L2.34599 27.6666L5.84907 29.742C5.76797 30.2568 5.71407 30.783 5.71407 31.321C5.71407 31.8194 5.76055 32.308 5.83275 32.7872L2.30347 34.826L5.96182 41.1621L9.48913 39.1263C10.2502 39.734 11.1086 40.2285 12.0284 40.5944V44.6652H19.3456V40.5944C20.2313 40.2448 21.0541 39.7726 21.7959 39.194L25.299 41.2724L29.032 34.9754L25.525 32.8989C25.607 32.3847 25.6624 31.8585 25.6624 31.3215ZM15.6858 36.1919C13.0006 36.1919 10.8149 34.0071 10.8149 31.321C10.8149 28.6338 13.0006 26.4481 15.6858 26.4481C18.3729 26.4481 20.5586 28.6338 20.5586 31.321C20.5586 34.0076 18.3729 36.1919 15.6858 36.1919Z" fill="#FF7415"/>
<path d="M40.2547 10.4346C40.2547 10.0538 40.2172 9.68489 40.1618 9.32094L42.845 7.77462L40.0653 2.95813L37.3851 4.50346C36.8056 4.04456 36.1578 3.66725 35.4575 3.39082V0.298187H29.8944V3.39082C29.2223 3.65637 28.5973 4.01489 28.038 4.45302L25.3731 2.87506L22.5411 7.65692L25.204 9.23341C25.1412 9.62753 25.0986 10.0266 25.0986 10.4351C25.0986 10.8138 25.1362 11.1837 25.1906 11.5477L22.5084 13.096L25.2895 17.9135L27.9678 16.3652C28.5493 16.826 29.1981 17.2004 29.8944 17.4778V20.5704H35.4575V17.4778C36.1296 17.2103 36.7556 16.8527 37.3139 16.4156L39.9808 17.9926L42.8143 13.2102L40.1494 11.6347C40.2142 11.2411 40.2547 10.844 40.2547 10.4346ZM32.6769 14.6873C30.333 14.6873 28.4252 12.778 28.4252 10.4346C28.4252 8.08863 30.3325 6.1828 32.6769 6.1828C35.0219 6.1828 36.9307 8.08863 36.9307 10.4346C36.9307 12.7775 35.0219 14.6873 32.6769 14.6873Z" fill="black"/>
</svg>
