<svg width="26" height="26" viewBox="0 0 26 26" fill="none" xmlns="http://www.w3.org/2000/svg">
<path d="M24.4856 10.7533H23.8932V9.03837C23.8932 8.17464 23.1902 7.47164 22.3265 7.47164H21.2718V6.89766C21.2718 6.03393 20.5688 5.33093 19.7051 5.33093H18.542C17.6783 5.33093 16.9753 6.03393 16.9753 6.89766V10.747H9.02437V6.89766C9.02437 6.03393 8.32137 5.33093 7.45764 5.33093H6.29457C5.43084 5.33093 4.72784 6.03393 4.72784 6.89766V7.96452H3.67352C2.80979 7.96452 2.10679 8.66752 2.10679 9.53125V10.9627H1.51402C0.679408 10.9623 0 11.6653 0 12.529V13.68C0 14.5437 0.679408 15.2467 1.51402 15.2467H2.10642V16.9616C2.10642 17.8253 2.80943 18.5283 3.67316 18.5283H4.72747V19.1023C4.72747 19.966 5.43048 20.669 6.29421 20.669H7.45727C8.321 20.669 9.024 19.966 9.024 19.1023V15.0436H16.9749V19.1023C16.9749 19.966 17.6779 20.669 18.5416 20.669H19.7047C20.5684 20.669 21.2714 19.966 21.2714 19.1023V18.0355H22.3261C23.1898 18.0355 23.8928 17.3325 23.8928 16.4687V15.0377H24.4852C25.3202 15.0377 25.9993 14.3347 25.9993 13.4709V12.32C26 11.4563 25.3206 10.7533 24.4856 10.7533ZM1.51402 14.3251C1.1874 14.3251 0.921607 14.0357 0.921607 13.68V12.529C0.921607 12.1733 1.1874 11.8839 1.51402 11.8839H2.10642V14.3251H1.51402ZM3.67352 17.6067C3.31778 17.6067 3.0284 17.3174 3.0284 16.9616V9.53088C3.0284 9.17514 3.31778 8.88575 3.67352 8.88575H4.72784V17.6064H3.67352V17.6067ZM8.10277 19.1023C8.10277 19.4581 7.81338 19.7474 7.45764 19.7474H6.29457C5.93883 19.7474 5.64945 19.4581 5.64945 19.1023V6.89766C5.64945 6.54192 5.93883 6.25254 6.29457 6.25254H7.45764C7.81338 6.25254 8.10277 6.54192 8.10277 6.89766V19.1023ZM9.02437 14.122V11.6686H16.9753V14.122H9.02437ZM20.3502 19.1023C20.3502 19.4581 20.0608 19.7474 19.7051 19.7474H18.542C18.1862 19.7474 17.8969 19.4581 17.8969 19.1023V6.89766C17.8969 6.54192 18.1862 6.25254 18.542 6.25254H19.7051C20.0608 6.25254 20.3502 6.54192 20.3502 6.89766V19.1023ZM22.9716 16.4687C22.9716 16.8245 22.6822 17.1139 22.3265 17.1139H21.2718V8.39325H22.3265C22.6822 8.39325 22.9716 8.68263 22.9716 9.03837V16.4687ZM25.0784 13.4709C25.0784 13.8267 24.8126 14.1161 24.486 14.1161H23.8936V11.6749H24.486C24.8126 11.6749 25.0784 11.9643 25.0784 12.32V13.4709Z" fill="#FF7415"/>
</svg>
