<svg width="25" height="25" viewBox="0 0 25 25" fill="none" xmlns="http://www.w3.org/2000/svg">
<path d="M17.5 25H7.375C5.3125 25 3.6875 23.3125 3.6875 21.3125V10C3.6875 9.625 3.9375 9.375 4.3125 9.375C4.6875 9.375 4.9375 9.625 4.9375 10V21.3125C4.9375 22.6875 6.0625 23.75 7.375 23.75H17.5C18.875 23.75 19.9375 22.625 19.9375 21.3125V10C19.9375 9.625 20.1875 9.375 20.5625 9.375C20.9375 9.375 21.1875 9.625 21.1875 10V21.3125C21.1875 23.3125 19.5 25 17.5 25Z" fill="#FF7415"/>
<path d="M20.8125 3.0625H16.0625C15.75 1.3125 14.25 0 12.4375 0C10.625 0 9.125 1.3125 8.8125 3.0625H4.0625C2.625 3.0625 1.5 4.1875 1.5 5.625C1.5 7.0625 2.625 8.125 4.0625 8.125H20.875C22.3125 8.125 23.4375 7 23.4375 5.5625C23.4375 4.125 22.25 3.0625 20.8125 3.0625ZM12.4375 1.25C13.5625 1.25 14.5 2 14.75 3.0625H10.0625C10.375 2 11.3125 1.25 12.4375 1.25ZM20.8125 6.875H4.0625C3.375 6.875 2.75 6.3125 2.75 5.5625C2.75 4.875 3.3125 4.25 4.0625 4.25H20.875C21.5625 4.25 22.1875 4.8125 22.1875 5.5625C22.125 6.3125 21.5625 6.875 20.8125 6.875Z" fill="#FF7415"/>
<path d="M8.0625 21.9375C7.6875 21.9375 7.4375 21.6875 7.4375 21.3125V10.875C7.4375 10.5 7.6875 10.25 8.0625 10.25C8.4375 10.25 8.6875 10.5 8.6875 10.875V21.3125C8.6875 21.625 8.375 21.9375 8.0625 21.9375Z" fill="#FF7415"/>
<path d="M16.8125 21.9375C16.4375 21.9375 16.1875 21.6875 16.1875 21.3125V10.875C16.1875 10.5 16.4375 10.25 16.8125 10.25C17.1875 10.25 17.4375 10.5 17.4375 10.875V21.3125C17.4375 21.625 17.125 21.9375 16.8125 21.9375Z" fill="#FF7415"/>
<path d="M12.4375 21.9375C12.0625 21.9375 11.8125 21.6875 11.8125 21.3125V10.875C11.8125 10.5 12.0625 10.25 12.4375 10.25C12.8125 10.25 13.0625 10.5 13.0625 10.875V21.3125C13.0625 21.625 12.75 21.9375 12.4375 21.9375Z" fill="#FF7415"/>
</svg>
